<svg width="220" height="38" viewBox="0 0 220 38" fill="none" xmlns="http://www.w3.org/2000/svg">
<g filter="url(#filter0_d)">
<path d="M13.7647 30.252C11.9167 30.252 10.2607 29.952 8.79667 29.352C7.33267 28.752 6.15667 27.864 5.26867 26.688C4.40467 25.512 3.94867 24.096 3.90067 22.44H10.4527C10.5487 23.376 10.8727 24.096 11.4247 24.6C11.9767 25.08 12.6967 25.32 13.5847 25.32C14.4967 25.32 15.2167 25.116 15.7447 24.708C16.2727 24.276 16.5367 23.688 16.5367 22.944C16.5367 22.32 16.3207 21.804 15.8887 21.396C15.4807 20.988 14.9647 20.652 14.3407 20.388C13.7407 20.124 12.8767 19.824 11.7487 19.488C10.1167 18.984 8.78467 18.48 7.75267 17.976C6.72067 17.472 5.83267 16.728 5.08867 15.744C4.34467 14.76 3.97267 13.476 3.97267 11.892C3.97267 9.54 4.82467 7.704 6.52867 6.384C8.23267 5.04 10.4527 4.368 13.1887 4.368C15.9727 4.368 18.2167 5.04 19.9207 6.384C21.6247 7.704 22.5367 9.552 22.6567 11.928H15.9967C15.9487 11.112 15.6487 10.476 15.0967 10.02C14.5447 9.54 13.8367 9.3 12.9727 9.3C12.2287 9.3 11.6287 9.504 11.1727 9.912C10.7167 10.296 10.4887 10.86 10.4887 11.604C10.4887 12.42 10.8727 13.056 11.6407 13.512C12.4087 13.968 13.6087 14.46 15.2407 14.988C16.8727 15.54 18.1927 16.068 19.2007 16.572C20.2327 17.076 21.1207 17.808 21.8647 18.768C22.6087 19.728 22.9807 20.964 22.9807 22.476C22.9807 23.916 22.6087 25.224 21.8647 26.4C21.1447 27.576 20.0887 28.512 18.6967 29.208C17.3047 29.904 15.6607 30.252 13.7647 30.252ZM35.9131 30.288C33.9451 30.288 32.1691 29.868 30.5851 29.028C29.0251 28.188 27.7891 26.988 26.8771 25.428C25.9891 23.868 25.5451 22.044 25.5451 19.956C25.5451 17.892 26.0011 16.08 26.9131 14.52C27.8251 12.936 29.0731 11.724 30.6571 10.884C32.2411 10.044 34.0171 9.624 35.9851 9.624C37.9531 9.624 39.7291 10.044 41.3131 10.884C42.8971 11.724 44.1451 12.936 45.0571 14.52C45.9691 16.08 46.4251 17.892 46.4251 19.956C46.4251 22.02 45.9571 23.844 45.0211 25.428C44.1091 26.988 42.8491 28.188 41.2411 29.028C39.6571 29.868 37.8811 30.288 35.9131 30.288ZM35.9131 24.96C37.0891 24.96 38.0851 24.528 38.9011 23.664C39.7411 22.8 40.1611 21.564 40.1611 19.956C40.1611 18.348 39.7531 17.112 38.9371 16.248C38.1451 15.384 37.1611 14.952 35.9851 14.952C34.7851 14.952 33.7891 15.384 32.9971 16.248C32.2051 17.088 31.8091 18.324 31.8091 19.956C31.8091 21.564 32.1931 22.8 32.9611 23.664C33.7531 24.528 34.7371 24.96 35.9131 24.96ZM59.771 15.024H56.459V30H50.303V15.024H48.071V9.912H50.303V9.336C50.303 6.864 51.011 4.992 52.427 3.72C53.843 2.424 55.919 1.776 58.655 1.776C59.111 1.776 59.447 1.788 59.663 1.812V7.032C58.487 6.96 57.659 7.128 57.179 7.536C56.699 7.944 56.459 8.676 56.459 9.732V9.912H59.771V15.024ZM73.8596 24.78V30H70.7276C68.4956 30 66.7556 29.46 65.5076 28.38C64.2596 27.276 63.6356 25.488 63.6356 23.016V15.024H61.1876V9.912H63.6356V5.016H69.7916V9.912H73.8236V15.024H69.7916V23.088C69.7916 23.688 69.9356 24.12 70.2236 24.384C70.5116 24.648 70.9916 24.78 71.6636 24.78H73.8596ZM100.65 25.536H91.2175L89.7055 30H83.2615L92.4055 4.728H99.5335L108.678 30H102.162L100.65 25.536ZM99.0655 20.784L95.9335 11.532L92.8375 20.784H99.0655ZM123.737 30L117.617 21.576V30H111.461V3.36H117.617V18.084L123.701 9.912H131.297L122.945 19.992L131.369 30H123.737ZM132.49 19.956C132.49 17.868 132.91 16.044 133.75 14.484C134.614 12.924 135.802 11.724 137.314 10.884C138.85 10.044 140.602 9.624 142.57 9.624C145.09 9.624 147.19 10.284 148.87 11.604C150.574 12.924 151.69 14.784 152.218 17.184H145.666C145.114 15.648 144.046 14.88 142.462 14.88C141.334 14.88 140.434 15.324 139.762 16.212C139.09 17.076 138.754 18.324 138.754 19.956C138.754 21.588 139.09 22.848 139.762 23.736C140.434 24.6 141.334 25.032 142.462 25.032C144.046 25.032 145.114 24.264 145.666 22.728H152.218C151.69 25.08 150.574 26.928 148.87 28.272C147.166 29.616 145.066 30.288 142.57 30.288C140.602 30.288 138.85 29.868 137.314 29.028C135.802 28.188 134.614 26.988 133.75 25.428C132.91 23.868 132.49 22.044 132.49 19.956ZM174.447 19.632C174.447 20.208 174.411 20.808 174.339 21.432H160.407C160.503 22.68 160.899 23.64 161.595 24.312C162.315 24.96 163.191 25.284 164.223 25.284C165.759 25.284 166.827 24.636 167.427 23.34H173.979C173.643 24.66 173.031 25.848 172.143 26.904C171.279 27.96 170.187 28.788 168.867 29.388C167.547 29.988 166.071 30.288 164.439 30.288C162.471 30.288 160.719 29.868 159.183 29.028C157.647 28.188 156.447 26.988 155.583 25.428C154.719 23.868 154.287 22.044 154.287 19.956C154.287 17.868 154.707 16.044 155.547 14.484C156.411 12.924 157.611 11.724 159.147 10.884C160.683 10.044 162.447 9.624 164.439 9.624C166.383 9.624 168.111 10.032 169.623 10.848C171.135 11.664 172.311 12.828 173.151 14.34C174.015 15.852 174.447 17.616 174.447 19.632ZM168.147 18.012C168.147 16.956 167.787 16.116 167.067 15.492C166.347 14.868 165.447 14.556 164.367 14.556C163.335 14.556 162.459 14.856 161.739 15.456C161.043 16.056 160.611 16.908 160.443 18.012H168.147ZM185.867 30.288C184.115 30.288 182.555 29.988 181.187 29.388C179.819 28.788 178.739 27.972 177.947 26.94C177.155 25.884 176.711 24.708 176.615 23.412H182.699C182.771 24.108 183.095 24.672 183.671 25.104C184.247 25.536 184.955 25.752 185.795 25.752C186.563 25.752 187.151 25.608 187.559 25.32C187.991 25.008 188.207 24.612 188.207 24.132C188.207 23.556 187.907 23.136 187.307 22.872C186.707 22.584 185.735 22.272 184.391 21.936C182.951 21.6 181.751 21.252 180.791 20.892C179.831 20.508 179.003 19.92 178.307 19.128C177.611 18.312 177.263 17.22 177.263 15.852C177.263 14.7 177.575 13.656 178.199 12.72C178.847 11.76 179.783 11.004 181.007 10.452C182.255 9.9 183.731 9.624 185.435 9.624C187.955 9.624 189.935 10.248 191.375 11.496C192.839 12.744 193.679 14.4 193.895 16.464H188.207C188.111 15.768 187.799 15.216 187.271 14.808C186.767 14.4 186.095 14.196 185.255 14.196C184.535 14.196 183.983 14.34 183.599 14.628C183.215 14.892 183.023 15.264 183.023 15.744C183.023 16.32 183.323 16.752 183.923 17.04C184.547 17.328 185.507 17.616 186.803 17.904C188.291 18.288 189.503 18.672 190.439 19.056C191.375 19.416 192.191 20.016 192.887 20.856C193.607 21.672 193.979 22.776 194.003 24.168C194.003 25.344 193.667 26.4 192.995 27.336C192.347 28.248 191.399 28.968 190.151 29.496C188.927 30.024 187.499 30.288 185.867 30.288ZM205.941 30.288C204.189 30.288 202.629 29.988 201.261 29.388C199.893 28.788 198.813 27.972 198.021 26.94C197.229 25.884 196.785 24.708 196.689 23.412H202.773C202.845 24.108 203.169 24.672 203.745 25.104C204.321 25.536 205.029 25.752 205.869 25.752C206.637 25.752 207.225 25.608 207.633 25.32C208.065 25.008 208.281 24.612 208.281 24.132C208.281 23.556 207.981 23.136 207.381 22.872C206.781 22.584 205.809 22.272 204.465 21.936C203.025 21.6 201.825 21.252 200.865 20.892C199.905 20.508 199.077 19.92 198.381 19.128C197.685 18.312 197.337 17.22 197.337 15.852C197.337 14.7 197.649 13.656 198.273 12.72C198.921 11.76 199.857 11.004 201.081 10.452C202.329 9.9 203.805 9.624 205.509 9.624C208.029 9.624 210.009 10.248 211.449 11.496C212.913 12.744 213.753 14.4 213.969 16.464H208.281C208.185 15.768 207.873 15.216 207.345 14.808C206.841 14.4 206.169 14.196 205.329 14.196C204.609 14.196 204.057 14.34 203.673 14.628C203.289 14.892 203.097 15.264 203.097 15.744C203.097 16.32 203.397 16.752 203.997 17.04C204.621 17.328 205.581 17.616 206.877 17.904C208.365 18.288 209.577 18.672 210.513 19.056C211.449 19.416 212.265 20.016 212.961 20.856C213.681 21.672 214.053 22.776 214.077 24.168C214.077 25.344 213.741 26.4 213.069 27.336C212.421 28.248 211.473 28.968 210.225 29.496C209.001 30.024 207.573 30.288 205.941 30.288Z" fill="black"/>
<path d="M13.7647 30.252C11.9167 30.252 10.2607 29.952 8.79667 29.352C7.33267 28.752 6.15667 27.864 5.26867 26.688C4.40467 25.512 3.94867 24.096 3.90067 22.44H10.4527C10.5487 23.376 10.8727 24.096 11.4247 24.6C11.9767 25.08 12.6967 25.32 13.5847 25.32C14.4967 25.32 15.2167 25.116 15.7447 24.708C16.2727 24.276 16.5367 23.688 16.5367 22.944C16.5367 22.32 16.3207 21.804 15.8887 21.396C15.4807 20.988 14.9647 20.652 14.3407 20.388C13.7407 20.124 12.8767 19.824 11.7487 19.488C10.1167 18.984 8.78467 18.48 7.75267 17.976C6.72067 17.472 5.83267 16.728 5.08867 15.744C4.34467 14.76 3.97267 13.476 3.97267 11.892C3.97267 9.54 4.82467 7.704 6.52867 6.384C8.23267 5.04 10.4527 4.368 13.1887 4.368C15.9727 4.368 18.2167 5.04 19.9207 6.384C21.6247 7.704 22.5367 9.552 22.6567 11.928H15.9967C15.9487 11.112 15.6487 10.476 15.0967 10.02C14.5447 9.54 13.8367 9.3 12.9727 9.3C12.2287 9.3 11.6287 9.504 11.1727 9.912C10.7167 10.296 10.4887 10.86 10.4887 11.604C10.4887 12.42 10.8727 13.056 11.6407 13.512C12.4087 13.968 13.6087 14.46 15.2407 14.988C16.8727 15.54 18.1927 16.068 19.2007 16.572C20.2327 17.076 21.1207 17.808 21.8647 18.768C22.6087 19.728 22.9807 20.964 22.9807 22.476C22.9807 23.916 22.6087 25.224 21.8647 26.4C21.1447 27.576 20.0887 28.512 18.6967 29.208C17.3047 29.904 15.6607 30.252 13.7647 30.252ZM35.9131 30.288C33.9451 30.288 32.1691 29.868 30.5851 29.028C29.0251 28.188 27.7891 26.988 26.8771 25.428C25.9891 23.868 25.5451 22.044 25.5451 19.956C25.5451 17.892 26.0011 16.08 26.9131 14.52C27.8251 12.936 29.0731 11.724 30.6571 10.884C32.2411 10.044 34.0171 9.624 35.9851 9.624C37.9531 9.624 39.7291 10.044 41.3131 10.884C42.8971 11.724 44.1451 12.936 45.0571 14.52C45.9691 16.08 46.4251 17.892 46.4251 19.956C46.4251 22.02 45.9571 23.844 45.0211 25.428C44.1091 26.988 42.8491 28.188 41.2411 29.028C39.6571 29.868 37.8811 30.288 35.9131 30.288ZM35.9131 24.96C37.0891 24.96 38.0851 24.528 38.9011 23.664C39.7411 22.8 40.1611 21.564 40.1611 19.956C40.1611 18.348 39.7531 17.112 38.9371 16.248C38.1451 15.384 37.1611 14.952 35.9851 14.952C34.7851 14.952 33.7891 15.384 32.9971 16.248C32.2051 17.088 31.8091 18.324 31.8091 19.956C31.8091 21.564 32.1931 22.8 32.9611 23.664C33.7531 24.528 34.7371 24.96 35.9131 24.96ZM59.771 15.024H56.459V30H50.303V15.024H48.071V9.912H50.303V9.336C50.303 6.864 51.011 4.992 52.427 3.72C53.843 2.424 55.919 1.776 58.655 1.776C59.111 1.776 59.447 1.788 59.663 1.812V7.032C58.487 6.96 57.659 7.128 57.179 7.536C56.699 7.944 56.459 8.676 56.459 9.732V9.912H59.771V15.024ZM73.8596 24.78V30H70.7276C68.4956 30 66.7556 29.46 65.5076 28.38C64.2596 27.276 63.6356 25.488 63.6356 23.016V15.024H61.1876V9.912H63.6356V5.016H69.7916V9.912H73.8236V15.024H69.7916V23.088C69.7916 23.688 69.9356 24.12 70.2236 24.384C70.5116 24.648 70.9916 24.78 71.6636 24.78H73.8596ZM100.65 25.536H91.2175L89.7055 30H83.2615L92.4055 4.728H99.5335L108.678 30H102.162L100.65 25.536ZM99.0655 20.784L95.9335 11.532L92.8375 20.784H99.0655ZM123.737 30L117.617 21.576V30H111.461V3.36H117.617V18.084L123.701 9.912H131.297L122.945 19.992L131.369 30H123.737ZM132.49 19.956C132.49 17.868 132.91 16.044 133.75 14.484C134.614 12.924 135.802 11.724 137.314 10.884C138.85 10.044 140.602 9.624 142.57 9.624C145.09 9.624 147.19 10.284 148.87 11.604C150.574 12.924 151.69 14.784 152.218 17.184H145.666C145.114 15.648 144.046 14.88 142.462 14.88C141.334 14.88 140.434 15.324 139.762 16.212C139.09 17.076 138.754 18.324 138.754 19.956C138.754 21.588 139.09 22.848 139.762 23.736C140.434 24.6 141.334 25.032 142.462 25.032C144.046 25.032 145.114 24.264 145.666 22.728H152.218C151.69 25.08 150.574 26.928 148.87 28.272C147.166 29.616 145.066 30.288 142.57 30.288C140.602 30.288 138.85 29.868 137.314 29.028C135.802 28.188 134.614 26.988 133.75 25.428C132.91 23.868 132.49 22.044 132.49 19.956ZM174.447 19.632C174.447 20.208 174.411 20.808 174.339 21.432H160.407C160.503 22.68 160.899 23.64 161.595 24.312C162.315 24.96 163.191 25.284 164.223 25.284C165.759 25.284 166.827 24.636 167.427 23.34H173.979C173.643 24.66 173.031 25.848 172.143 26.904C171.279 27.96 170.187 28.788 168.867 29.388C167.547 29.988 166.071 30.288 164.439 30.288C162.471 30.288 160.719 29.868 159.183 29.028C157.647 28.188 156.447 26.988 155.583 25.428C154.719 23.868 154.287 22.044 154.287 19.956C154.287 17.868 154.707 16.044 155.547 14.484C156.411 12.924 157.611 11.724 159.147 10.884C160.683 10.044 162.447 9.624 164.439 9.624C166.383 9.624 168.111 10.032 169.623 10.848C171.135 11.664 172.311 12.828 173.151 14.34C174.015 15.852 174.447 17.616 174.447 19.632ZM168.147 18.012C168.147 16.956 167.787 16.116 167.067 15.492C166.347 14.868 165.447 14.556 164.367 14.556C163.335 14.556 162.459 14.856 161.739 15.456C161.043 16.056 160.611 16.908 160.443 18.012H168.147ZM185.867 30.288C184.115 30.288 182.555 29.988 181.187 29.388C179.819 28.788 178.739 27.972 177.947 26.94C177.155 25.884 176.711 24.708 176.615 23.412H182.699C182.771 24.108 183.095 24.672 183.671 25.104C184.247 25.536 184.955 25.752 185.795 25.752C186.563 25.752 187.151 25.608 187.559 25.32C187.991 25.008 188.207 24.612 188.207 24.132C188.207 23.556 187.907 23.136 187.307 22.872C186.707 22.584 185.735 22.272 184.391 21.936C182.951 21.6 181.751 21.252 180.791 20.892C179.831 20.508 179.003 19.92 178.307 19.128C177.611 18.312 177.263 17.22 177.263 15.852C177.263 14.7 177.575 13.656 178.199 12.72C178.847 11.76 179.783 11.004 181.007 10.452C182.255 9.9 183.731 9.624 185.435 9.624C187.955 9.624 189.935 10.248 191.375 11.496C192.839 12.744 193.679 14.4 193.895 16.464H188.207C188.111 15.768 187.799 15.216 187.271 14.808C186.767 14.4 186.095 14.196 185.255 14.196C184.535 14.196 183.983 14.34 183.599 14.628C183.215 14.892 183.023 15.264 183.023 15.744C183.023 16.32 183.323 16.752 183.923 17.04C184.547 17.328 185.507 17.616 186.803 17.904C188.291 18.288 189.503 18.672 190.439 19.056C191.375 19.416 192.191 20.016 192.887 20.856C193.607 21.672 193.979 22.776 194.003 24.168C194.003 25.344 193.667 26.4 192.995 27.336C192.347 28.248 191.399 28.968 190.151 29.496C188.927 30.024 187.499 30.288 185.867 30.288ZM205.941 30.288C204.189 30.288 202.629 29.988 201.261 29.388C199.893 28.788 198.813 27.972 198.021 26.94C197.229 25.884 196.785 24.708 196.689 23.412H202.773C202.845 24.108 203.169 24.672 203.745 25.104C204.321 25.536 205.029 25.752 205.869 25.752C206.637 25.752 207.225 25.608 207.633 25.32C208.065 25.008 208.281 24.612 208.281 24.132C208.281 23.556 207.981 23.136 207.381 22.872C206.781 22.584 205.809 22.272 204.465 21.936C203.025 21.6 201.825 21.252 200.865 20.892C199.905 20.508 199.077 19.92 198.381 19.128C197.685 18.312 197.337 17.22 197.337 15.852C197.337 14.7 197.649 13.656 198.273 12.72C198.921 11.76 199.857 11.004 201.081 10.452C202.329 9.9 203.805 9.624 205.509 9.624C208.029 9.624 210.009 10.248 211.449 11.496C212.913 12.744 213.753 14.4 213.969 16.464H208.281C208.185 15.768 207.873 15.216 207.345 14.808C206.841 14.4 206.169 14.196 205.329 14.196C204.609 14.196 204.057 14.34 203.673 14.628C203.289 14.892 203.097 15.264 203.097 15.744C203.097 16.32 203.397 16.752 203.997 17.04C204.621 17.328 205.581 17.616 206.877 17.904C208.365 18.288 209.577 18.672 210.513 19.056C211.449 19.416 212.265 20.016 212.961 20.856C213.681 21.672 214.053 22.776 214.077 24.168C214.077 25.344 213.741 26.4 213.069 27.336C212.421 28.248 211.473 28.968 210.225 29.496C209.001 30.024 207.573 30.288 205.941 30.288Z" fill="url(#paint0_linear)"/>
</g>
<defs>
<filter id="filter0_d" x="0.900673" y="0.776001" width="218.176" height="36.512" filterUnits="userSpaceOnUse" color-interpolation-filters="sRGB">
<feFlood flood-opacity="0" result="BackgroundImageFix"/>
<feColorMatrix in="SourceAlpha" type="matrix" values="0 0 0 0 0 0 0 0 0 0 0 0 0 0 0 0 0 0 127 0"/>
<feOffset dx="1" dy="3"/>
<feGaussianBlur stdDeviation="2"/>
<feColorMatrix type="matrix" values="0 0 0 0 0.207569 0 0 0 0 0.268479 0 0 0 0 0.816667 0 0 0 0.48 0"/>
<feBlend mode="normal" in2="BackgroundImageFix" result="effect1_dropShadow"/>
<feBlend mode="normal" in="SourceGraphic" in2="effect1_dropShadow" result="shape"/>
</filter>
<linearGradient id="paint0_linear" x1="109" y1="-17" x2="109" y2="51" gradientUnits="userSpaceOnUse">
<stop stop-color="#6A06CE"/>
<stop offset="1" stop-color="white" stop-opacity="0"/>
</linearGradient>
</defs>
</svg>
